<svg id="visual" viewBox="0 0 1080 166" width="1080" height="166" xmlns="http://www.w3.org/2000/svg" xmlns:xlink="http://www.w3.org/1999/xlink" version="1.1"><path d="M0 31L36 30.5C72 30 144 29 216 27.7C288 26.3 360 24.7 432 24C504 23.3 576 23.7 648 22.5C720 21.3 792 18.7 864 17.3C936 16 1008 16 1044 16L1080 16L1080 0L1044 0C1008 0 936 0 864 0C792 0 720 0 648 0C576 0 504 0 432 0C360 0 288 0 216 0C144 0 72 0 36 0L0 0Z" fill="#83c885"></path><path d="M0 49L36 47.7C72 46.3 144 43.7 216 41.2C288 38.7 360 36.3 432 36.7C504 37 576 40 648 40.7C720 41.3 792 39.7 864 38.5C936 37.3 1008 36.7 1044 36.3L1080 36L1080 14L1044 14C1008 14 936 14 864 15.3C792 16.7 720 19.3 648 20.5C576 21.7 504 21.3 432 22C360 22.7 288 24.3 216 25.7C144 27 72 28 36 28.5L0 29Z" fill="#6ebe70"></path><path d="M0 59L36 59.3C72 59.7 144 60.3 216 59.8C288 59.3 360 57.7 432 57.8C504 58 576 60 648 60.2C720 60.3 792 58.7 864 56C936 53.3 1008 49.7 1044 47.8L1080 46L1080 34L1044 34.3C1008 34.7 936 35.3 864 36.5C792 37.7 720 39.3 648 38.7C576 38 504 35 432 34.7C360 34.3 288 36.7 216 39.2C144 41.7 72 44.3 36 45.7L0 47Z" fill="#58b45b"></path><path d="M0 82L36 83.5C72 85 144 88 216 86.3C288 84.7 360 78.3 432 78.8C504 79.3 576 86.7 648 89C720 91.3 792 88.7 864 85C936 81.3 1008 76.7 1044 74.3L1080 72L1080 44L1044 45.8C1008 47.7 936 51.3 864 54C792 56.7 720 58.3 648 58.2C576 58 504 56 432 55.8C360 55.7 288 57.3 216 57.8C144 58.3 72 57.7 36 57.3L0 57Z" fill="#48a54c"></path><path d="M0 142L36 138.5C72 135 144 128 216 123.7C288 119.3 360 117.7 432 120.3C504 123 576 130 648 134C720 138 792 139 864 136C936 133 1008 126 1044 122.5L1080 119L1080 70L1044 72.3C1008 74.7 936 79.3 864 83C792 86.7 720 89.3 648 87C576 84.7 504 77.3 432 76.8C360 76.3 288 82.7 216 84.3C144 86 72 83 36 81.5L0 80Z" fill="#409243"></path><path d="M0 167L36 167C72 167 144 167 216 167C288 167 360 167 432 167C504 167 576 167 648 167C720 167 792 167 864 167C936 167 1008 167 1044 167L1080 167L1080 117L1044 120.5C1008 124 936 131 864 134C792 137 720 136 648 132C576 128 504 121 432 118.3C360 115.7 288 117.3 216 121.7C144 126 72 133 36 136.5L0 140Z" fill="#38803b"></path></svg>